<?xml version="1.0" encoding="iso-8859-1"?>
<!-- Uploaded to: SVG Repo, www.svgrepo.com, Generator: SVG Repo Mixer Tools -->
<svg fill="#150578" version="1.1" id="Layer_1" xmlns="http://www.w3.org/2000/svg" xmlns:xlink="http://www.w3.org/1999/xlink" 
	 viewBox="0 0 496 496" xml:space="preserve">
<g>
	<g>
		<g>
			<path d="M347.512,240c21.064,0,41.848-7.072,58.528-19.912L494.56,152l-88.512-68.088C389.36,71.072,368.576,64,347.512,64
				H198.384L185.2,37.64C173.6,14.424,150.264,0,124.304,0H25.44v21.768L71.616,37.16c16.728,5.576,29.296,19.016,33.824,36.016V80
				h-40v16h40v16h-56v16h56v16h-72v16h72v16h-56v16h56v16h-40v16h40v6.824c-4.528,17-17.088,30.448-33.824,36.016L25.44,282.232V304
				h98.864c25.952,0,49.288-14.424,60.896-37.64L198.384,240h59.056v59.112l-3.312-5.52C249.088,285.208,239.896,280,230.12,280
				h-8.68c-15.44,0-28,12.56-28,28c0,4.312,1.064,8.352,2.808,12H81.44v176h320V320h-66.808c1.744-3.648,2.808-7.688,2.808-12
				c0-15.44-12.56-28-28-28h-8.68c-9.776,0-18.968,5.208-24.008,13.592l-3.312,5.52V240H347.512z M361.44,81.264
				c12.616,2.248,24.656,7.48,34.848,15.32L468.32,152l-72.032,55.408c-10.2,7.848-22.24,13.072-34.848,15.32V81.264z M273.44,80h72
				v16h-16v16h16v16h-16v16h16v16h-16v16h16v16h-16v16h16v16h-72V80z M137.44,336h16v48h-16V336z M193.44,480h-96V336h24v64h48v-64
				h24V480z M76.68,21.984L58.736,16h65.568c19.848,0,37.704,11.032,46.584,28.792L180.496,64h-61.224
				C112.336,44.2,96.848,28.704,76.68,21.984z M170.896,259.208C162.008,276.968,144.16,288,124.304,288H58.736l17.944-5.984
				c20.168-6.728,35.656-22.224,42.592-42.016h61.224L170.896,259.208z M121.44,224V80h136v144H121.44z M221.44,296h8.68
				c4.184,0,8.136,2.232,10.288,5.832L251.312,320h-9.872h-20c-6.616,0-12-5.384-12-12C209.44,301.384,214.824,296,221.44,296z
				 M290.472,301.832c2.152-3.6,6.104-5.832,10.288-5.832h8.68c6.616,0,12,5.384,12,12c0,6.616-5.384,12-12,12h-20h-9.872
				L290.472,301.832z M275.632,336h13.808h20h76v144h-176V336h12h20h13.8c-5.912,19.752-17.968,37.128-34.6,49.6l9.592,12.8
				c15.472-11.6,27.456-26.896,35.2-44.28c7.752,17.384,19.736,32.68,35.2,44.28l9.592-12.8
				C293.6,373.128,281.544,355.752,275.632,336z"/>
			<rect x="1.44" y="144" width="16" height="16"/>
			<rect x="17.44" y="112" width="16" height="16"/>
			<rect x="33.44" y="80" width="16" height="16"/>
			<rect x="17.44" y="176" width="16" height="16"/>
			<rect x="33.44" y="208" width="16" height="16"/>
		</g>
	</g>
</g>
</svg>