<svg id="visual" viewBox="0 0 1960 1080" width="1960" height="1080" xmlns="http://www.w3.org/2000/svg" xmlns:xlink="http://www.w3.org/1999/xlink" version="1.1"><rect x="0" y="0" width="1960" height="1080" fill="#0E0E52"></rect><defs><linearGradient id="grad1_0" x1="44.9%" y1="0%" x2="100%" y2="100%"><stop offset="13.703703703703702%" stop-color="#78c0e0" stop-opacity="1"></stop><stop offset="86.2962962962963%" stop-color="#78c0e0" stop-opacity="1"></stop></linearGradient></defs><defs><linearGradient id="grad1_1" x1="44.9%" y1="0%" x2="100%" y2="100%"><stop offset="13.703703703703702%" stop-color="#78c0e0" stop-opacity="1"></stop><stop offset="86.2962962962963%" stop-color="#4892c1" stop-opacity="1"></stop></linearGradient></defs><defs><linearGradient id="grad1_2" x1="44.9%" y1="0%" x2="100%" y2="100%"><stop offset="13.703703703703702%" stop-color="#2365a0" stop-opacity="1"></stop><stop offset="86.2962962962963%" stop-color="#4892c1" stop-opacity="1"></stop></linearGradient></defs><defs><linearGradient id="grad1_3" x1="44.9%" y1="0%" x2="100%" y2="100%"><stop offset="13.703703703703702%" stop-color="#2365a0" stop-opacity="1"></stop><stop offset="86.2962962962963%" stop-color="#0f3a7b" stop-opacity="1"></stop></linearGradient></defs><defs><linearGradient id="grad1_4" x1="44.9%" y1="0%" x2="100%" y2="100%"><stop offset="13.703703703703702%" stop-color="#0e0e52" stop-opacity="1"></stop><stop offset="86.2962962962963%" stop-color="#0f3a7b" stop-opacity="1"></stop></linearGradient></defs><defs><linearGradient id="grad2_0" x1="0%" y1="0%" x2="55.1%" y2="100%"><stop offset="13.703703703703702%" stop-color="#78c0e0" stop-opacity="1"></stop><stop offset="86.2962962962963%" stop-color="#78c0e0" stop-opacity="1"></stop></linearGradient></defs><defs><linearGradient id="grad2_1" x1="0%" y1="0%" x2="55.1%" y2="100%"><stop offset="13.703703703703702%" stop-color="#4892c1" stop-opacity="1"></stop><stop offset="86.2962962962963%" stop-color="#78c0e0" stop-opacity="1"></stop></linearGradient></defs><defs><linearGradient id="grad2_2" x1="0%" y1="0%" x2="55.1%" y2="100%"><stop offset="13.703703703703702%" stop-color="#4892c1" stop-opacity="1"></stop><stop offset="86.2962962962963%" stop-color="#2365a0" stop-opacity="1"></stop></linearGradient></defs><defs><linearGradient id="grad2_3" x1="0%" y1="0%" x2="55.1%" y2="100%"><stop offset="13.703703703703702%" stop-color="#0f3a7b" stop-opacity="1"></stop><stop offset="86.2962962962963%" stop-color="#2365a0" stop-opacity="1"></stop></linearGradient></defs><defs><linearGradient id="grad2_4" x1="0%" y1="0%" x2="55.1%" y2="100%"><stop offset="13.703703703703702%" stop-color="#0f3a7b" stop-opacity="1"></stop><stop offset="86.2962962962963%" stop-color="#0e0e52" stop-opacity="1"></stop></linearGradient></defs><g transform="translate(1960, 0)"><path d="M0 506C-77.4 483.7 -154.8 461.4 -250 433C-345.2 404.6 -458.3 370.2 -514.4 297C-570.6 223.8 -569.8 111.9 -569 0L0 0Z" fill="#0d2467"></path><path d="M0 404.8C-61.9 387 -123.8 369.1 -200 346.4C-276.2 323.7 -366.6 296.1 -411.5 237.6C-456.4 179.1 -455.8 89.5 -455.2 0L0 0Z" fill="#164f8e"></path><path d="M0 303.6C-46.4 290.2 -92.9 276.8 -150 259.8C-207.1 242.8 -275 222.1 -308.7 178.2C-342.3 134.3 -341.9 67.1 -341.4 0L0 0Z" fill="#347cb1"></path><path d="M0 202.4C-31 193.5 -61.9 184.6 -100 173.2C-138.1 161.9 -183.3 148.1 -205.8 118.8C-228.2 89.5 -227.9 44.8 -227.6 0L0 0Z" fill="#5fa9d1"></path><path d="M0 101.2C-15.5 96.7 -31 92.3 -50 86.6C-69 80.9 -91.7 74 -102.9 59.4C-114.1 44.8 -114 22.4 -113.8 0L0 0Z" fill="#78c0e0"></path></g><g transform="translate(0, 1080)"><path d="M0 -594C102.7 -565.6 205.3 -537.2 274 -474.6C342.7 -412 377.4 -315.3 399.2 -230.5C421.1 -145.7 430 -72.9 439 0L0 0Z" fill="#0d2467"></path><path d="M0 -475.2C82.1 -452.5 164.3 -429.7 219.2 -379.7C274.1 -329.6 301.9 -252.2 319.4 -184.4C336.9 -116.6 344 -58.3 351.2 0L0 0Z" fill="#164f8e"></path><path d="M0 -356.4C61.6 -339.3 123.2 -322.3 164.4 -284.7C205.6 -247.2 226.4 -189.2 239.5 -138.3C252.6 -87.4 258 -43.7 263.4 0L0 0Z" fill="#347cb1"></path><path d="M0 -237.6C41.1 -226.2 82.1 -214.9 109.6 -189.8C137.1 -164.8 151 -126.1 159.7 -92.2C168.4 -58.3 172 -29.1 175.6 0L0 0Z" fill="#5fa9d1"></path><path d="M0 -118.8C20.5 -113.1 41.1 -107.4 54.8 -94.9C68.5 -82.4 75.5 -63.1 79.8 -46.1C84.2 -29.1 86 -14.6 87.8 0L0 0Z" fill="#78c0e0"></path></g></svg>